<svg 
    xmlns="http://www.w3.org/2000/svg" 
    xmlns:xlink="http://www.w3.org/1999/xlink" 
    width="500" 
    zoomAndPan="magnify" 
    viewBox="0 0 375 374.999991" 
    height="500" 
    preserveAspectRatio="xMidYMid meet" 
    version="1.0"
>
    <defs>
        <g/>
        <clipPath id="832dcf20c9">
            <path d="M 97.507812 85.011719 L 277.484375 85.011719 L 277.484375 199.761719 L 97.507812 199.761719 Z M 97.507812 85.011719 " clip-rule="nonzero"/>
        </clipPath>
    </defs>
    <g clip-path="url(#832dcf20c9)">
        <path 
            fill="#000000" 
            d="M 99.421875 180.617188 C 100.183594 179.535156 101.066406 178.648438 102.355469 177.726562 L 104.601562 176.078125 C 107.574219 173.910156 110.789062 172.023438 113.921875 170.175781 L 114.125 170.054688 C 117.335938 168.164062 120.308594 166.4375 123.164062 164.832031 L 124.085938 164.308594 L 124.289062 164.1875 C 126.65625 162.863281 129.066406 161.496094 131.519531 160.25 C 132.5625 159.730469 133.605469 159.167969 134.609375 158.644531 C 136.621094 157.601562 138.910156 156.394531 141.117188 155.308594 L 141.238281 155.269531 L 152.40625 149.925781 C 154.578125 148.882812 156.867188 147.878906 158.875 146.996094 L 160.722656 146.191406 L 162.167969 145.546875 C 164.457031 144.503906 166.828125 143.460938 169.199219 142.496094 L 170.804688 141.851562 C 174.058594 140.527344 177.433594 139.203125 180.808594 137.917969 L 180.847656 137.273438 L 180.929688 136.230469 L 181.007812 135.265625 L 181.050781 134.703125 C 181.171875 133.335938 181.289062 131.808594 181.332031 130.324219 C 181.128906 130.203125 180.929688 130.082031 180.769531 129.960938 L 180.609375 129.839844 L 180.085938 129.519531 C 178.480469 128.476562 176.953125 127.3125 175.546875 126.1875 C 173.457031 124.539062 171.570312 123.011719 169.722656 121.367188 C 167.148438 119.074219 163.453125 115.5 160.921875 111.042969 C 160.242188 109.875 159.757812 108.550781 159.355469 107.425781 C 158.914062 106.179688 158.792969 104.816406 158.675781 103.449219 L 158.632812 102.886719 C 158.554688 102.125 158.59375 101.320312 158.714844 100.273438 L 158.792969 99.753906 C 158.914062 98.910156 158.996094 98.144531 159.195312 97.34375 C 159.398438 96.539062 159.839844 95.617188 160.160156 94.890625 L 160.242188 94.691406 C 161.203125 92.5625 162.691406 90.675781 164.457031 89.308594 L 164.859375 89.027344 C 165.503906 88.503906 166.105469 88.0625 166.828125 87.621094 C 167.511719 87.21875 168.355469 86.859375 169.078125 86.617188 L 169.519531 86.457031 C 170.445312 86.09375 171.410156 85.773438 172.492188 85.574219 C 174.824219 85.089844 177.273438 85.011719 179.320312 85.011719 C 179.644531 85.011719 179.964844 85.011719 180.285156 85.011719 C 182.214844 85.011719 184.34375 85.210938 186.875 85.53125 C 189.40625 85.855469 191.855469 86.214844 194.304688 86.898438 C 196.554688 87.5 198.84375 88.382812 200.695312 89.109375 L 201.578125 89.46875 L 202.460938 89.832031 C 203.546875 90.472656 204.46875 91.355469 205.113281 92.480469 C 206.117188 94.167969 206.398438 96.257812 205.835938 98.144531 C 205.3125 99.996094 204.109375 101.601562 202.460938 102.566406 C 201.335938 103.207031 199.890625 103.609375 198.605469 103.609375 C 197.921875 103.609375 197.320312 103.488281 196.757812 103.289062 C 194.546875 102.445312 192.660156 101.800781 190.933594 101.238281 C 189.40625 100.757812 187.71875 100.394531 185.589844 100.074219 C 183.257812 99.792969 181.210938 99.671875 179.242188 99.671875 C 178.15625 99.671875 177.074219 99.714844 176.066406 99.792969 C 175.507812 99.914062 174.902344 100.074219 174.339844 100.234375 C 174.21875 100.316406 174.058594 100.394531 173.9375 100.476562 C 173.820312 100.597656 173.738281 100.675781 173.617188 100.796875 C 173.539062 100.957031 173.417969 101.117188 173.335938 101.28125 L 173.257812 101.519531 C 173.257812 101.84375 173.257812 102.164062 173.257812 102.484375 C 173.335938 102.804688 173.417969 103.128906 173.496094 103.449219 C 173.9375 104.253906 174.460938 105.097656 175.183594 106.140625 C 176.1875 107.34375 177.355469 108.429688 178.359375 109.394531 C 179.765625 110.71875 181.210938 112.003906 182.738281 113.289062 C 183.460938 113.894531 184.222656 114.496094 184.945312 115.058594 L 185.105469 115.179688 L 185.1875 115.257812 C 186.390625 116.101562 187.757812 117.066406 189.164062 117.910156 C 189.445312 118.113281 189.765625 118.273438 190.089844 118.433594 C 191.171875 119.035156 192.257812 119.679688 193.140625 120.5625 C 195.914062 123.332031 196.074219 127.351562 195.871094 131.289062 L 195.871094 131.609375 C 195.753906 133.859375 195.632812 136.230469 195.472656 138.476562 C 198.242188 139.523438 201.054688 140.648438 203.746094 141.730469 L 204.109375 141.894531 L 205.714844 142.535156 C 208.042969 143.460938 210.335938 144.503906 212.585938 145.507812 L 212.746094 145.589844 L 214.191406 146.230469 L 216.039062 147.035156 C 218.046875 147.917969 220.296875 148.921875 222.507812 149.96875 L 233.753906 155.351562 C 236.003906 156.433594 238.253906 157.601562 240.261719 158.683594 C 241.308594 159.246094 242.351562 159.769531 243.394531 160.292969 C 245.886719 161.578125 248.378906 162.984375 250.789062 164.308594 L 251.792969 164.871094 C 254.683594 166.519531 257.65625 168.207031 260.832031 170.09375 L 261.03125 170.214844 C 264.164062 172.0625 267.417969 173.949219 270.390625 176.121094 L 272.640625 177.765625 C 273.925781 178.730469 274.808594 179.574219 275.574219 180.660156 C 276.457031 181.945312 277.5 183.914062 277.460938 186.121094 C 277.421875 188.410156 276.617188 190.421875 274.96875 192.226562 C 274.207031 193.113281 273.121094 193.914062 271.714844 194.71875 C 269.304688 196.085938 266.777344 197.089844 264.042969 197.730469 C 257.296875 199.296875 250.304688 199.621094 243.796875 199.738281 C 242.753906 199.738281 241.707031 199.78125 240.664062 199.820312 L 240.503906 199.820312 C 238.855469 199.859375 237.128906 199.902344 235.441406 199.902344 C 234.878906 199.902344 234.355469 199.902344 233.792969 199.902344 L 233.554688 199.902344 C 229.335938 199.820312 225.117188 199.738281 220.898438 199.699219 C 216.480469 199.621094 212.101562 199.539062 207.683594 199.5 C 207.5625 199.5 207.441406 199.5 207.320312 199.5 C 207.160156 199.5 207 199.5 206.839844 199.5 L 206.757812 199.5 L 202.21875 199.417969 C 200.574219 199.378906 198.886719 199.378906 197.238281 199.339844 L 196.675781 199.339844 C 192.417969 199.257812 188.039062 199.175781 183.742188 199.175781 C 181.851562 199.21875 179.925781 199.21875 178.035156 199.257812 L 174.945312 199.296875 C 174.261719 199.339844 173.617188 199.339844 172.933594 199.339844 L 172.816406 199.339844 C 171.328125 199.378906 169.800781 199.417969 168.273438 199.539062 C 168.113281 199.539062 167.953125 199.539062 167.792969 199.539062 C 167.351562 199.539062 166.910156 199.5 166.507812 199.417969 C 162.410156 199.5 158.3125 199.539062 154.214844 199.621094 C 149.957031 199.699219 145.699219 199.78125 141.441406 199.859375 L 141.359375 199.859375 C 140.796875 199.859375 140.277344 199.859375 139.714844 199.859375 C 138.027344 199.859375 136.296875 199.820312 134.652344 199.78125 L 134.53125 199.78125 C 133.445312 199.738281 132.402344 199.738281 131.355469 199.699219 C 124.808594 199.621094 117.859375 199.296875 111.109375 197.691406 C 108.378906 197.046875 105.847656 196.085938 103.4375 194.679688 C 102.03125 193.875 100.949219 193.070312 100.183594 192.1875 C 98.578125 190.378906 97.734375 188.371094 97.695312 186.082031 C 97.492188 183.871094 98.539062 181.902344 99.421875 180.617188 Z M 119.628906 184.3125 L 120.230469 184.355469 C 124.851562 184.796875 129.507812 184.835938 134.050781 184.917969 L 135.65625 184.917969 C 137.464844 184.957031 139.351562 184.957031 141.28125 184.957031 C 142.285156 184.957031 143.289062 184.957031 144.292969 184.917969 C 152.046875 184.796875 159.839844 184.636719 167.59375 184.515625 L 171.085938 184.476562 C 172.414062 184.433594 173.738281 184.394531 175.023438 184.355469 L 175.625 184.355469 C 176.390625 184.355469 177.191406 184.3125 177.957031 184.3125 C 179.28125 184.273438 180.769531 184.273438 182.414062 184.273438 C 183.300781 184.273438 184.183594 184.273438 185.105469 184.273438 L 187.4375 184.234375 C 189.042969 184.195312 190.691406 184.195312 192.296875 184.195312 C 193.945312 184.195312 195.429688 184.195312 196.757812 184.234375 C 197.519531 184.273438 198.324219 184.273438 199.085938 184.273438 L 199.6875 184.273438 C 202.140625 184.3125 204.671875 184.394531 207.160156 184.554688 L 207.320312 184.554688 C 215.035156 184.675781 222.746094 184.796875 230.460938 184.957031 C 231.464844 184.957031 232.46875 184.996094 233.472656 184.996094 C 235.402344 184.996094 237.328125 184.957031 239.097656 184.957031 L 240.746094 184.957031 C 245.285156 184.875 249.945312 184.835938 254.5625 184.394531 C 254.964844 184.355469 255.367188 184.3125 255.769531 184.273438 C 251.871094 181.984375 247.773438 179.574219 243.15625 177.003906 C 240.261719 175.355469 237.570312 173.910156 234.960938 172.585938 C 234.117188 172.140625 233.273438 171.699219 232.390625 171.257812 C 230.300781 170.175781 228.210938 169.089844 226.203125 168.125 L 214.875 162.703125 C 212.945312 161.777344 210.9375 160.894531 209.007812 160.050781 L 208.847656 159.96875 C 208.042969 159.609375 207.203125 159.246094 206.398438 158.886719 L 205.554688 158.523438 C 203.386719 157.558594 200.933594 156.476562 198.523438 155.511719 L 196.835938 154.828125 C 193.582031 153.503906 190.410156 152.257812 187.234375 151.011719 C 184.144531 152.21875 180.96875 153.460938 177.957031 154.667969 L 177.796875 154.707031 L 176.109375 155.390625 C 173.65625 156.355469 171.246094 157.441406 169.078125 158.402344 L 168.234375 158.765625 C 167.429688 159.125 166.628906 159.488281 165.785156 159.851562 L 165.464844 159.96875 C 163.574219 160.8125 161.648438 161.65625 159.757812 162.542969 L 148.429688 167.925781 C 146.382812 168.886719 144.332031 169.972656 142.242188 171.058594 C 141.398438 171.5 140.515625 171.941406 139.671875 172.382812 C 137.0625 173.75 134.371094 175.195312 131.476562 176.800781 C 126.617188 179.535156 122.601562 181.863281 118.902344 184.113281 Z M 119.628906 184.3125 " 
            fill-opacity="1" 
            fill-rule="nonzero"
        />
    </g>
    <g fill="#000000" fill-opacity="1">
        <g transform="translate(70.705078, 270.549673)">
            <g>
                <path 
                    d="M 42.027344 -26.171875 C 39.445312 -23.210938 36.261719 -21.316406 32.769531 -20.480469 C 34.589844 -26.246094 35.121094 -32.238281 33.679688 -37.398438 C 30.722656 -47.792969 20.859375 -46.730469 15.097656 -40.886719 C 14.792969 -40.964844 14.414062 -41.039062 14.035156 -40.8125 C 3.035156 -36.640625 -1.214844 -19.570312 -0.152344 -9.101562 C 1.0625 3.261719 13.425781 4.703125 21.847656 -2.730469 C 25.640625 -6.070312 28.976562 -11 31.253906 -16.386719 C 36.414062 -16.917969 41.191406 -19.34375 44.757812 -23.441406 C 46.351562 -25.261719 43.617188 -27.992188 42.027344 -26.171875 Z M 28.066406 -39.976562 C 29.886719 -38.082031 30.417969 -35.273438 30.496094 -32.769531 C 30.722656 -28.523438 29.8125 -24.199219 28.371094 -20.101562 C 26.777344 -20.179688 25.109375 -20.480469 23.515625 -21.011719 C 16.6875 -23.363281 12.214844 -29.660156 16.460938 -36.488281 C 18.890625 -40.355469 24.125 -44 28.066406 -39.976562 Z M 15.777344 -3.109375 C 10.847656 -0.605469 5.308594 -1.515625 3.945312 -7.28125 C 2.046875 -14.792969 4.703125 -29.128906 11.53125 -35.273438 C 11 -33.679688 10.695312 -32.011719 10.847656 -30.269531 C 11.226562 -23.441406 17.449219 -18.660156 23.59375 -16.992188 C 24.652344 -16.6875 25.714844 -16.539062 26.855469 -16.386719 C 26.703125 -16.15625 26.625 -15.929688 26.476562 -15.703125 C 24.125 -10.773438 20.710938 -5.613281 15.777344 -3.109375 Z M 15.777344 -3.109375 "
                />
            </g>
        </g>
    </g>
    <g fill="#000000" fill-opacity="1">
        <g transform="translate(109.846939, 270.549673)">
            <g>
                <path 
                    d="M 27.003906 -20.101562 C 25.945312 -18.359375 20.859375 -11.910156 17.902344 -13.046875 C 15.097656 -14.261719 17.902344 -21.011719 20.101562 -25.488281 C 20.40625 -26.019531 20.632812 -26.550781 20.9375 -27.082031 C 21.46875 -28.066406 21.921875 -28.828125 22.152344 -29.207031 C 23.363281 -31.328125 20.101562 -33.226562 18.8125 -31.101562 C 18.738281 -30.949219 18.585938 -30.796875 18.507812 -30.570312 C 18.359375 -30.417969 18.28125 -30.191406 18.128906 -29.964844 C 17.371094 -28.523438 16.308594 -26.625 15.324219 -24.503906 C 13.125 -20.179688 10.621094 -15.855469 6.828125 -13.65625 C 1.441406 -10.542969 2.503906 -16.917969 3.640625 -19.949219 C 4.929688 -23.136719 6.75 -26.09375 8.117188 -29.207031 C 9.101562 -31.40625 5.839844 -33.378906 4.855469 -31.101562 C 2.730469 -26.398438 -7.28125 -10.921875 3.261719 -9.101562 C 7.054688 -8.496094 10.242188 -10.542969 12.894531 -13.65625 C 13.199219 -11.984375 14.035156 -10.621094 15.628906 -9.785156 C 21.089844 -6.902344 27.839844 -14.1875 30.34375 -18.207031 C 31.558594 -20.332031 28.296875 -22.226562 27.003906 -20.101562 Z M 27.003906 -20.101562 "
                />
            </g>
        </g>
    </g>
    <g fill="#000000" fill-opacity="1">
        <g transform="translate(136.851791, 270.549673)">
            <g>
                <path 
                    d="M 21.542969 -22.605469 C 18.738281 -18.964844 16.539062 -14.792969 13.273438 -11.53125 C 11.757812 -10.089844 8.421875 -6.980469 6.070312 -7.738281 C 1.972656 -8.875 4.019531 -17.066406 4.550781 -19.722656 C 5.839844 -25.867188 7.660156 -32.011719 9.632812 -38.082031 C 13.65625 -38.082031 17.675781 -38.003906 21.621094 -38.003906 C 24.125 -38.003906 24.125 -41.796875 21.621094 -41.875 C 18.054688 -41.875 14.488281 -41.875 10.921875 -41.949219 C 12.59375 -46.882812 14.335938 -51.8125 16.007812 -56.667969 C 16.765625 -59.019531 13.046875 -60.003906 12.289062 -57.652344 C 10.542969 -52.417969 8.875 -47.183594 7.207031 -41.949219 C 5.308594 -41.949219 3.488281 -41.949219 1.667969 -41.949219 C -0.835938 -41.949219 -0.835938 -38.082031 1.667969 -38.082031 C 3.109375 -38.082031 4.550781 -38.082031 5.992188 -38.082031 C 4.929688 -34.742188 3.867188 -31.480469 2.882812 -28.144531 C 1.136719 -22.453125 -2.65625 -11.835938 0.757812 -6.21875 C 3.261719 -1.972656 9.863281 -4.097656 13.125 -6.296875 C 18.28125 -9.785156 21.242188 -15.777344 24.882812 -20.710938 C 26.324219 -22.683594 22.984375 -24.578125 21.542969 -22.605469 Z M 21.542969 -22.605469 "
                />
            </g>
        </g>
    </g>
    <g fill="#000000" fill-opacity="1">
        <g transform="translate(157.408859, 270.549673)">
            <g>
                <path 
                    d="M 20.558594 -56.894531 C 16.082031 -57.5 13.273438 -54.390625 11.304688 -50.75 C 9.785156 -48.019531 8.648438 -45.058594 7.585938 -42.101562 C 6.070312 -42.101562 4.550781 -42.101562 3.109375 -42.101562 C 0.605469 -42.175781 0.605469 -38.308594 3.109375 -38.308594 C 4.171875 -38.308594 5.234375 -38.308594 6.296875 -38.234375 C 5.460938 -35.503906 4.628906 -32.769531 3.792969 -30.117188 C 0.984375 -21.46875 -1.515625 -12.746094 -3.792969 -3.867188 C -4.398438 -1.441406 -0.605469 -0.457031 0 -2.882812 C 2.503906 -12.972656 5.460938 -22.984375 8.800781 -32.921875 C 9.332031 -34.667969 9.9375 -36.488281 10.542969 -38.234375 C 13.65625 -38.234375 16.839844 -38.234375 20.027344 -38.308594 C 22.453125 -38.308594 22.53125 -42.175781 20.027344 -42.175781 C 17.296875 -42.101562 14.566406 -42.101562 11.835938 -42.101562 C 12.289062 -43.238281 12.667969 -44.453125 13.125 -45.589844 C 14.109375 -47.941406 15.628906 -52.113281 18.28125 -53.101562 C 20.179688 -53.785156 22.757812 -52.644531 22.53125 -50.292969 C 22.300781 -47.867188 26.019531 -47.941406 26.246094 -50.292969 C 26.703125 -54.011719 24.199219 -56.4375 20.558594 -56.894531 Z M 20.558594 -56.894531 "
                />
            </g>
        </g>
    </g>
    <g fill="#000000" fill-opacity="1">
        <g transform="translate(170.380287, 270.549673)">
            <g>
                <path 
                    d="M 14.714844 -22.984375 C 12.515625 -19.949219 10.089844 -16.6875 6.902344 -14.488281 C 4.855469 -13.125 3.1875 -12.820312 3.414062 -15.777344 C 3.867188 -20.558594 6.523438 -25.183594 8.269531 -29.585938 C 9.179688 -31.9375 5.460938 -32.921875 4.550781 -30.648438 C 3.1875 -27.15625 1.515625 -23.742188 0.457031 -20.101562 C -0.304688 -17.371094 -1.289062 -13.730469 0.683594 -11.304688 C 6.070312 -4.476562 15.550781 -17.449219 18.054688 -21.089844 C 19.496094 -23.136719 16.234375 -24.957031 14.714844 -22.984375 Z M 8.648438 -36.488281 C 8.648438 -36.488281 8.722656 -36.488281 8.800781 -36.488281 C 9.785156 -36.640625 10.773438 -37.324219 10.695312 -38.460938 C 10.695312 -39.445312 9.863281 -40.507812 8.800781 -40.433594 C 8.722656 -40.433594 8.648438 -40.433594 8.648438 -40.355469 C 7.585938 -40.28125 6.601562 -39.597656 6.675781 -38.460938 C 6.75 -37.472656 7.511719 -36.414062 8.648438 -36.488281 Z M 8.648438 -36.488281 "
                />
            </g>
        </g>
    </g>
    <g fill="#000000" fill-opacity="1">
        <g transform="translate(184.413711, 270.549673)">
            <g>
                <path 
                    d="M 21.542969 -22.605469 C 18.738281 -18.964844 16.539062 -14.792969 13.273438 -11.53125 C 11.757812 -10.089844 8.421875 -6.980469 6.070312 -7.738281 C 1.972656 -8.875 4.019531 -17.066406 4.550781 -19.722656 C 5.839844 -25.867188 7.660156 -32.011719 9.632812 -38.082031 C 13.65625 -38.082031 17.675781 -38.003906 21.621094 -38.003906 C 24.125 -38.003906 24.125 -41.796875 21.621094 -41.875 C 18.054688 -41.875 14.488281 -41.875 10.921875 -41.949219 C 12.59375 -46.882812 14.335938 -51.8125 16.007812 -56.667969 C 16.765625 -59.019531 13.046875 -60.003906 12.289062 -57.652344 C 10.542969 -52.417969 8.875 -47.183594 7.207031 -41.949219 C 5.308594 -41.949219 3.488281 -41.949219 1.667969 -41.949219 C -0.835938 -41.949219 -0.835938 -38.082031 1.667969 -38.082031 C 3.109375 -38.082031 4.550781 -38.082031 5.992188 -38.082031 C 4.929688 -34.742188 3.867188 -31.480469 2.882812 -28.144531 C 1.136719 -22.453125 -2.65625 -11.835938 0.757812 -6.21875 C 3.261719 -1.972656 9.863281 -4.097656 13.125 -6.296875 C 18.28125 -9.785156 21.242188 -15.777344 24.882812 -20.710938 C 26.324219 -22.683594 22.984375 -24.578125 21.542969 -22.605469 Z M 21.542969 -22.605469 "
                />
            </g>
        </g>
    </g>
    <g fill="#000000" fill-opacity="1">
        <g transform="translate(204.970778, 270.549673)">
            <g>
                <path 
                    d="M 27.917969 -21.089844 C 26.398438 -19.421875 23.820312 -19.269531 21.242188 -19.875 C 22.53125 -23.742188 21.695312 -27.535156 18.507812 -30.417969 C 17.980469 -30.949219 17.371094 -31.328125 16.839844 -31.558594 C 8.042969 -37.324219 -1.214844 -23.894531 0.378906 -15.628906 C 1.289062 -10.542969 5.613281 -7.207031 10.847656 -8.800781 C 14.261719 -9.785156 17.371094 -12.820312 19.421875 -16.007812 C 23.441406 -14.867188 27.917969 -15.398438 30.648438 -18.359375 C 32.316406 -20.179688 29.585938 -22.910156 27.917969 -21.089844 Z M 14.261719 -27.234375 C 16.839844 -29.8125 18.207031 -23.441406 18.054688 -22.378906 C 17.980469 -22 17.902344 -21.621094 17.75 -21.242188 C 14.640625 -22.910156 12.515625 -25.414062 14.261719 -27.234375 Z M 15.628906 -17.296875 C 14.488281 -15.777344 12.820312 -13.804688 11.074219 -13.046875 C 5.839844 -10.621094 3.414062 -15.929688 4.171875 -20.027344 C 4.777344 -23.136719 7.511719 -27.6875 10.847656 -28.976562 C 10.847656 -28.976562 10.847656 -28.902344 10.847656 -28.902344 C 9.027344 -24.046875 11.683594 -19.875 15.777344 -17.523438 C 15.703125 -17.449219 15.703125 -17.371094 15.628906 -17.296875 Z M 15.628906 -17.296875 "
                />
            </g>
        </g>
    </g>
    <g fill="#000000" fill-opacity="1">
        <g transform="translate(233.113462, 270.549673)">
            <g>
                <path 
                    d="M 30.269531 -19.949219 C 28.066406 -22.300781 25.035156 -23.515625 21.773438 -23.820312 C 21.847656 -24.578125 21.773438 -25.335938 21.621094 -26.019531 C 20.785156 -29.738281 17.75 -32.390625 13.882812 -32.46875 C 11.683594 -32.46875 9.558594 -31.632812 7.738281 -30.417969 C 7.890625 -30.949219 8.042969 -31.40625 8.191406 -31.9375 C 8.953125 -34.210938 5.386719 -35.199219 4.628906 -32.921875 C -0.304688 -18.738281 -4.550781 -4.25 -8.800781 10.164062 C -9.558594 12.515625 -5.917969 13.503906 -5.160156 11.152344 C -1.59375 0.152344 1.59375 -11 5.082031 -22.074219 C 5.160156 -22.152344 5.160156 -22.226562 5.234375 -22.378906 C 6.902344 -25.109375 10.242188 -28.902344 13.882812 -28.675781 C 16.992188 -28.445312 17.980469 -26.171875 17.902344 -23.742188 C 14.945312 -23.441406 12.0625 -22.378906 9.785156 -20.859375 C 7.128906 -18.964844 3.1875 -15.929688 3.035156 -12.289062 C 3.035156 -9.40625 5.386719 -7.28125 8.191406 -7.660156 C 13.351562 -8.34375 18.964844 -14.1875 21.011719 -19.949219 C 23.59375 -19.648438 26.09375 -18.738281 27.535156 -17.21875 C 29.207031 -15.398438 31.9375 -18.128906 30.269531 -19.949219 Z M 6.980469 -12.515625 C 6.371094 -14.566406 13.503906 -18.964844 15.246094 -19.570312 C 15.777344 -19.722656 16.308594 -19.875 16.839844 -19.949219 C 16.765625 -19.722656 16.6875 -19.570312 16.539062 -19.34375 C 15.929688 -18.28125 7.964844 -9.253906 6.980469 -12.515625 Z M 6.980469 -12.515625 "
                />
            </g>
        </g>
    </g>
    <g fill="#000000" fill-opacity="1">
        <g transform="translate(260.801018, 270.549673)">
            <g>
                <path 
                    d="M 14.714844 -22.984375 C 12.515625 -19.949219 10.089844 -16.6875 6.902344 -14.488281 C 4.855469 -13.125 3.1875 -12.820312 3.414062 -15.777344 C 3.867188 -20.558594 6.523438 -25.183594 8.269531 -29.585938 C 9.179688 -31.9375 5.460938 -32.921875 4.550781 -30.648438 C 3.1875 -27.15625 1.515625 -23.742188 0.457031 -20.101562 C -0.304688 -17.371094 -1.289062 -13.730469 0.683594 -11.304688 C 6.070312 -4.476562 15.550781 -17.449219 18.054688 -21.089844 C 19.496094 -23.136719 16.234375 -24.957031 14.714844 -22.984375 Z M 8.648438 -36.488281 C 8.648438 -36.488281 8.722656 -36.488281 8.800781 -36.488281 C 9.785156 -36.640625 10.773438 -37.324219 10.695312 -38.460938 C 10.695312 -39.445312 9.863281 -40.507812 8.800781 -40.433594 C 8.722656 -40.433594 8.648438 -40.433594 8.648438 -40.355469 C 7.585938 -40.28125 6.601562 -39.597656 6.675781 -38.460938 C 6.75 -37.472656 7.511719 -36.414062 8.648438 -36.488281 Z M 8.648438 -36.488281 "
                />
            </g>
        </g>
    </g>
    <g fill="#000000" fill-opacity="1">
        <g transform="translate(274.834441, 270.549673)">
            <g>
                <path 
                    d="M 29.433594 -20.40625 C 27.992188 -17.902344 24.804688 -12.746094 21.621094 -13.503906 C 16.917969 -14.566406 19.191406 -21.921875 21.242188 -26.855469 C 21.921875 -28.296875 22.53125 -29.507812 22.910156 -30.417969 C 23.972656 -32.621094 20.710938 -34.589844 19.648438 -32.316406 C 19.34375 -31.859375 19.039062 -31.253906 18.738281 -30.570312 C 9.179688 -35.882812 -6.601562 -20.40625 2.125 -12.0625 C 6.828125 -7.660156 11.378906 -10.921875 15.097656 -16.007812 C 15.324219 -13.273438 16.539062 -10.847656 19.269531 -9.480469 C 24.804688 -6.675781 30.496094 -14.488281 32.769531 -18.507812 C 33.984375 -20.632812 30.648438 -22.605469 29.433594 -20.40625 Z M 8.875 -15.019531 C 3.566406 -11.378906 3.035156 -18.964844 5.234375 -22.300781 C 7.738281 -26.09375 12.894531 -29.738281 17.296875 -27.234375 C 15.171875 -22.53125 12.667969 -17.597656 8.875 -15.019531 Z M 8.875 -15.019531 "
                />
            </g>
        </g>
    </g>
</svg>