<svg 
    xmlns="http://www.w3.org/2000/svg" 
    xmlns:xlink="http://www.w3.org/1999/xlink" 
    width="600" 
    zoomAndPan="magnify" 
    viewBox="0 0 375 374.999991" 
    height="600" 
    preserveAspectRatio="xMidYMid meet" 
    version="1.0">
    <g clip-path="url(#2cb6fcdc53)">
        <g clip-path="url(#2c50a63b4d)">
            <g clip-path="url(#aa3972194e)">
                <g clip-path="url(#761a5e2522)">
                    <path 
                        stroke="black"
                        stroke-width="8"
                        fill="#000000" 
                        d="M 88.402344 232.089844 C 107.53125 275.929688 153.863281 301.886719 201.054688 295.222656 C 250.53125 288.226562 288.519531 247.621094 292.855469 198.851562 L 264.210938 198.851562 C 260.359375 231.59375 236.527344 258.46875 203.597656 265.863281 C 179.949219 271.171875 154.410156 264.5 135.292969 248.007812 L 147.679688 233.652344 C 162.269531 246.238281 181.609375 251.363281 199.421875 247.367188 C 226.761719 241.226562 245.824219 217.378906 245.785156 189.375 L 245.773438 179.886719 L 312.222656 179.898438 L 312.234375 189.371094 C 312.328125 251.660156 265.679688 305.234375 203.726562 314 C 167.046875 319.175781 130.816406 307.644531 103.9375 284.371094 C 90.0625 272.363281 78.683594 257.230469 71.007812 239.660156 C 68.738281 234.457031 66.941406 229.058594 65.386719 223.605469 L 85.148438 223.609375 C 86.121094 226.472656 87.1875 229.3125 88.402344 232.089844 Z M 168.890625 64.722656 C 223.871094 56.917969 278.242188 86.929688 301.101562 137.710938 C 303.667969 143.417969 305.695312 149.339844 307.386719 155.3125 L 287.632812 155.308594 C 286.503906 151.984375 285.246094 148.691406 283.800781 145.476562 C 264.382812 102.351562 218.246094 76.863281 171.578125 83.496094 C 122.144531 90.519531 84.1875 131.121094 77.570312 179.847656 L 106.214844 179.855469 C 112.339844 147.171875 136.113281 120.316406 168.964844 112.875 C 193.277344 107.363281 219.269531 114.511719 238.675781 131.824219 L 226.199219 146.09375 C 211.507812 132.796875 191.484375 127.21875 173.171875 131.367188 C 145.894531 137.542969 126.878906 161.375 126.917969 189.335938 L 126.933594 198.820312 L 60.480469 198.804688 L 60.46875 189.335938 C 60.382812 127.085938 106.992188 73.519531 168.890625 64.722656 " 
                        fill-opacity="1" 
                        fill-rule="nonzero"
                    />
                </g>
            </g>
        </g>
    </g>
</svg>